<svg width="338" height="218" viewBox="0 0 338 218" fill="none" xmlns="http://www.w3.org/2000/svg">
<path d="M295.879 214.944C295.307 213.867 295.983 212.882 296.09 211.849C297.041 202.484 294.349 194.619 285.538 189.454C282.848 187.874 280.104 186.239 277.157 185.217C272.595 183.628 269.653 180.26 266.524 177.146C263.393 174.037 263.267 170.11 264.589 166.148C265.557 163.253 267.096 160.604 268.951 158.144C271.453 154.837 274.185 151.69 276.595 148.32C281.658 141.243 286.01 133.783 287.683 125.254C289.636 115.287 288.058 106.106 279.857 98.841C273.744 93.419 266.27 91.8946 258.16 92.1534C247.271 92.5014 237.479 96.3004 227.848 100.641C221.971 103.287 216.351 106.526 209.671 107.117C202.796 107.727 197.247 105.663 193.303 100.046C190.692 96.3253 188.819 92.3018 187.168 88.133C182.958 77.5075 180.091 66.4198 175.036 56.0799C169.693 45.1562 159.617 38.7425 148.816 39.4221C139.355 40.018 131.609 44.2762 125.302 50.4714C117.915 57.7239 112.135 66.2295 107.028 75.1315C104.085 80.2609 101.231 85.5163 96.4846 89.4304C90.7047 94.1986 84.2629 95.5634 77.6185 91.5799C71.928 88.1633 66.7659 84.1114 61.1528 80.6304C54.5063 76.5047 47.7832 72.9776 39.5161 73.075C26.7295 73.2251 17.4132 79.7354 9.20488 88.0924C5.79451 91.5616 2.92785 95.5198 -0.181741 99.2559C-1.0839 101.305 -1.99209 103.352 -2.87777 105.374C-2.78692 105.513 -2.72878 105.687 -2.63191 105.829C-2.55284 105.945 -2.33165 106.134 -2.32955 106.128C-1.5061 105.443 -0.504645 104.861 0.0910797 104.023C6.35469 95.1887 14.4791 88.2834 24.0725 82.9005C31.4342 78.7722 39.1763 76.7834 47.5457 79.8847C51.8919 81.4921 56.0333 83.4948 59.7286 86.2952C63.8111 89.3848 67.8397 92.5851 72.2097 95.2746C79.6824 99.8734 87.6986 101.5 95.9778 97.1873C100.991 94.5773 104.664 90.4426 107.653 85.9268C112.607 78.4468 117.25 70.7805 122.618 63.5535C126.514 58.3089 130.756 53.3721 136.705 50.0817C149.524 42.9952 160.558 45.2296 167.39 56.4347C170.861 62.1263 173.604 68.1492 175.411 74.5373C177.888 83.2893 180.55 91.9802 185.136 99.997C191.549 111.205 203.045 116.854 217.157 111.977C224.999 109.269 232.266 105.418 240.101 102.695C248.484 99.7796 256.792 97.7016 265.734 99.1401C272.451 100.221 277.386 103.361 279.951 109.705C281.551 113.663 281.807 117.608 281.385 121.707C280.397 131.247 275.436 139.098 269.802 146.687C266.483 151.164 262.848 155.434 260.19 160.355C255.511 169.026 257.209 177.436 264.974 183.804C268.403 186.613 272.211 188.827 276.364 190.428C280.222 191.912 283.523 194.203 286.659 196.631C291.568 200.432 292.733 205.881 292.353 211.57C291.923 217.93 291.108 224.273 290.461 230.62C292.27 225.398 294.082 220.17 295.893 214.943L295.879 214.944Z" fill="white"/>
<path d="M150.004 156.875C148.226 159.221 147.829 161.7 148.249 164.007C148.698 166.481 147.479 167.492 145.678 168.665C141.946 171.084 137.736 172.59 133.485 173.479C118.261 176.659 103.118 176.348 88.2256 171.45C85.7883 170.65 83.2926 169.666 80.0215 169.905C81.3393 172.19 83.2518 172.896 85.0011 173.741C88.6629 175.52 92.6571 176.315 96.5988 177.304C114.284 181.751 131.322 179.8 147.783 172.573C149.573 171.79 150.651 171.467 152.062 173.107C154.482 175.92 157.678 176.798 162.447 175.809C153.923 171.45 151.106 164.718 150.004 156.869V156.875Z" fill="white"/>
<path d="M136.413 145.973C136.349 143.905 134.204 142.21 131.819 142.343C129.527 142.477 127.97 144.005 127.999 146.101C128.034 148.497 129.655 149.992 132.238 150.004C134.565 150.015 136.483 148.164 136.413 145.968V145.973Z" fill="white"/>
<path d="M97.0244 151.899C99.1876 151.772 100.768 150.21 100.814 148.147C100.861 145.94 98.9894 144.156 96.692 144.223C94.5579 144.284 92.9719 145.874 92.9427 147.98C92.9136 150.276 94.7445 152.033 97.0244 151.899Z" fill="white"/>
</svg>
