<svg width="150" height="161" viewBox="0 0 150 161" fill="none" xmlns="http://www.w3.org/2000/svg">
<g clip-path="url(#clip0_2677_13024)">
<path d="M26.8792 96.8694C18.9913 98.9554 13.5559 95.655 13.1964 89.1899C12.6159 88.765 12.1034 89.1989 11.6094 89.3883C8.33864 90.6296 3.96405 89.5278 1.80477 86.8829C0.983359 85.878 0.465873 84.7398 0.338126 83.433C0.230254 82.331 -0.242827 81.9064 -1.40883 82.2674C-2.45472 82.5934 -3.53769 82.3261 -4.58491 82.0833C-8.6488 81.1419 -10.5338 78.4084 -9.65377 74.3109C-8.97869 71.1654 -8.09928 68.0453 -7.07207 64.9953C-5.88543 61.4772 -4.5606 57.9927 -3.0724 54.5912C-0.632092 49.0199 3.64617 48.1298 8.34436 52.0664C8.63212 52.3064 8.94242 52.5207 9.24144 52.7479C12.9552 47.7127 19.1209 48.8811 23.2691 54.1265C27.6423 48.4101 33.4251 47.7298 38.2995 55.7452C39.6611 54.6743 40.1356 53.0243 41.0018 51.6937C45.1977 45.2409 51.0884 41.226 58.3383 38.9871C76.1073 33.5029 92.6256 36.5355 108.11 46.1623C115.24 50.5938 121.098 56.3649 124.956 63.9508C127.93 69.7915 129.152 76.1144 129.383 82.6094C129.773 93.5639 128.216 104.25 123.976 114.426C121.165 121.169 116.532 126.558 110.734 130.943C102.709 137.012 93.4366 139.112 83.6496 139.844C78.3505 140.24 73.1198 140.026 67.9662 139.042C61.0876 137.723 54.3827 135.76 48.176 132.337C43.6393 129.835 39.3806 127.019 35.7637 123.26C28.7342 115.953 25.4395 107.36 26.8792 96.8694ZM30.9492 89.9766C30.651 90.4919 30.4608 90.7142 30.3836 90.9671C26.649 103.457 30.1987 115.262 40.3366 124.198C44.9532 128.269 50.4299 130.774 56.0483 132.928C68.7668 137.804 81.8714 138.606 95.0558 135.079C106.868 131.918 115.981 124.979 120.965 113.545C126.292 101.319 127.714 88.527 125.341 75.393C124.338 69.8464 122.287 64.7366 118.895 60.1914C115.351 55.4427 110.902 51.7932 105.93 48.6144C94.6143 41.3812 82.2975 38.3416 68.9435 39.6177C64.2845 40.0633 59.775 41.3065 55.4099 43.1436C47.7607 46.3648 43.4129 52.5288 40.0491 59.7221C36.4626 67.3934 34.3461 75.5134 32.309 83.6755C31.9114 85.2657 32.0941 86.3647 33.3085 87.5738C39.6057 93.8349 46.1321 99.7996 54.0644 103.946C59.886 106.991 65.9888 109.178 72.7193 108.992C80.511 108.779 85.3934 102.043 82.9783 94.8792C82.5422 93.5872 82.0142 92.9454 80.4557 93.3071C78.7609 93.6983 76.9741 93.8699 75.2349 93.8334C70.6925 93.732 66.3498 92.834 62.633 89.9911C62.2486 89.699 61.8583 89.4036 61.5144 89.0615C59.8777 87.4264 59.0484 85.5319 59.9805 83.2307C60.8578 81.0641 62.7142 80.2873 64.8549 80.0885C71.7455 79.4466 77.0984 82.4712 81.5774 87.3244C83.5911 89.5101 84.6567 89.7211 86.7309 87.5321C89.5212 84.5905 90.4053 81.1369 89.1173 77.2455C87.6013 72.6657 84.092 69.9158 80.076 67.7693C75.2198 65.1751 70.0141 63.6695 64.4812 63.3271C63.3929 63.2615 62.1552 63.4341 61.2425 62.4343C61.9208 61.2888 62.9359 61.4743 63.8812 61.5345C66.9935 61.7358 70.1055 62.0373 73.1315 62.7529C79.3085 64.2139 84.9222 66.748 88.9836 71.9044C94.0105 78.2882 93.1417 85.8395 86.62 90.6525C85.1437 91.7421 85.0818 92.5797 85.6895 94.0135C88.7668 101.302 84.5169 111.109 73.379 111.797C68.8452 112.079 64.4758 111.154 60.2157 109.682C51.4165 106.642 44.0182 101.32 37.052 95.325C35.0733 93.6233 33.2927 91.6923 30.9509 89.9737L30.9492 89.9766ZM25.7564 56.0452C25.4778 56.7458 24.9402 57.9072 24.5432 59.1112C21.7579 67.5631 19.1149 76.0548 16.9596 84.6934C16.5539 86.3176 16.2882 87.9455 16.2955 89.5999C16.3075 92.0765 17.6725 93.736 20.147 94.4416C23.2283 95.3206 25.1543 94.7889 26.5857 92.5681C27.6001 90.9947 28.2016 89.225 28.6632 87.4245C30.6275 79.7535 32.5665 72.0796 34.5044 64.401C35.1062 62.0131 35.4103 59.5881 35.0275 57.1481C34.6262 54.5739 33.2629 53.1703 30.982 52.7546C28.9726 52.3877 27.3173 53.3351 25.7581 56.0423L25.7564 56.0452ZM13.4286 83.3029L13.4977 83.3429C13.8552 82.6455 14.2679 81.9723 14.5599 81.2485C17.1935 74.6992 18.9658 67.8911 20.6384 61.0562C20.9121 59.9391 20.835 58.7506 20.9943 57.6254C21.2054 56.1514 20.5404 55.1752 19.6819 54.261C16.5188 50.8998 12.5082 51.168 10.9766 54.9966C7.8222 62.8909 4.80864 70.8473 3.02997 79.1938C2.82665 80.1428 2.70275 81.1339 2.7208 82.099C2.76547 84.6717 4.02152 86.2605 6.47931 87.0414C8.84643 87.7931 10.9065 87.1226 12.3916 85.068C12.7905 84.5182 13.0855 83.889 13.4274 83.2984L13.4286 83.3029ZM80.2898 90.6913C80.0859 90.1404 80.0499 89.8374 79.8878 89.6393C76.7628 85.7939 72.6327 83.6586 67.8511 82.7154C66.5288 82.4564 65.1471 82.4992 63.8497 83.0739C62.3847 83.7256 61.9903 84.6993 62.7232 86.0896C63.228 87.0504 64.0335 87.7639 64.9255 88.3613C66.6407 89.5087 68.5888 90.1608 70.5516 90.6282C73.7244 91.3823 76.9439 91.3519 80.287 90.6896L80.2898 90.6913Z" fill="white"/>
</g>
<defs>
<clipPath id="clip0_2677_13024">
<rect width="104.663" height="140.318" fill="white" transform="translate(149.872 70.2871) rotate(120.061)"/>
</clipPath>
</defs>
</svg>
