<svg width="15" height="11" viewBox="0 0 15 11" fill="none" xmlns="http://www.w3.org/2000/svg">
<path d="M0.750452 0.500001H14.2508C14.3875 0.500382 14.5215 0.533951 14.6384 0.597093C14.7552 0.660234 14.8505 0.750558 14.914 0.858341C14.9775 0.966125 15.0068 1.08729 14.9987 1.20879C14.9906 1.33029 14.9454 1.44752 14.8681 1.54787L8.11791 10.23C7.83815 10.59 7.16463 10.59 6.88413 10.23L0.133934 1.54787C0.0558005 1.44773 0.0099812 1.33044 0.00145423 1.20873C-0.00707273 1.08703 0.0220188 0.965579 0.0855682 0.857567C0.149118 0.749555 0.244694 0.659116 0.361914 0.596076C0.479133 0.533037 0.613513 0.499809 0.750452 0.500001Z" fill="#FF8B13"/>
</svg>
