<svg width="108" height="96" viewBox="0 0 108 96" fill="none" xmlns="http://www.w3.org/2000/svg">
<path d="M81.6409 33.3836C78.6768 35.2648 75.419 36.3577 72.0071 37.0363C71.5923 36.8089 71.0179 36.9755 70.7012 36.5012C70.838 36.4469 70.9771 36.3907 71.1158 36.3367L71.182 36.4087C71.182 36.4087 71.1838 36.3052 71.1818 36.3049C72.573 36.0699 73.6776 35.1473 74.9818 34.6823C77.3429 33.842 79.4604 32.5307 81.5063 31.0894C82.4194 30.4454 83.1514 29.6475 83.7341 28.7071C85.0125 26.6452 85.0494 24.3276 83.849 22.8839C82.6486 21.4401 80.613 21.0849 78.3124 21.901C76.6884 22.4758 75.3482 23.4941 73.9751 24.7572C73.9256 24.0821 73.9011 23.5402 73.8424 23.0013C73.6321 21.0487 73.3255 19.121 72.1581 17.4707C70.8314 15.5959 68.2737 15.2377 66.9363 16.1464C66.0581 16.743 65.3098 17.4197 64.8023 18.3488C63.4966 20.7388 63.2181 23.3334 63.4299 25.9851C63.5463 27.4228 63.8688 28.8448 64.0979 30.2729L64.0167 30.3341C64.0167 30.3341 64.1138 30.3835 64.1141 30.3814C64.2198 31.0062 64.3256 31.631 64.431 32.2579C64.1903 32.5032 63.9658 32.7786 63.5609 32.6461C63.3665 31.8801 62.9284 31.1682 63.054 30.3305C63.1486 30.1063 63.0594 29.9946 62.8374 29.9655C61.9563 28.5071 61.8841 26.8584 61.807 25.2278C61.6669 22.1936 62.0323 19.2656 63.7754 16.6469C66.1844 13.027 70.6855 12.8996 73.2052 16.3695C74.3233 17.9081 74.7703 19.6274 74.8374 21.4914C74.8496 21.8216 74.67 22.2229 75.258 22.444C76.1933 21.6871 77.1874 20.8908 78.3871 20.4367C82.3798 18.9212 87.0721 21.2729 86.4273 26.7613C86.3333 27.5596 86.0436 28.2948 85.6761 29.0049C84.7281 30.8379 83.3693 32.2875 81.6409 33.3836Z" fill="white"/>
<path d="M70.4461 46.294C74.2919 50.6015 75.1475 55.428 73.2765 60.8491C73.1109 60.9191 72.9466 60.9917 72.781 61.0617C73.3237 56.9112 72.9661 52.9494 70.7349 49.2726C69.3313 46.9569 65.575 44.4855 62.5614 45.5354C61.0937 46.0465 59.8597 46.9024 58.8212 48.0318C55.6034 51.5348 54.1658 55.8337 53.507 60.429C52.8559 64.9716 52.9103 69.5337 53.3159 74.0917L53.2342 74.136C53.2342 74.136 53.309 74.198 53.3097 74.196C53.3403 74.593 53.3722 74.9927 53.4014 75.3937C53.1919 75.761 53.1149 76.2507 52.564 76.2971C52.2088 74.46 51.618 72.6858 51.4318 70.7999C50.9367 65.7818 51.2662 60.8256 52.615 55.9714C53.6361 52.2947 55.297 48.9094 58.0369 46.1645C61.963 42.2272 67.4405 42.9282 70.4461 46.294Z" fill="white"/>
<path d="M77.7383 80.5231C82.1904 78.5301 85.8752 75.6633 87.4746 70.7782C88.7139 66.9948 87.6686 62.5915 83.316 60.6851C81.3632 59.8301 79.3034 59.9025 77.2485 60.3827C76.9327 60.0643 77.0621 59.6686 77.069 59.296C77.6475 59.1218 78.2197 58.9099 78.8099 58.7775C83.6818 57.6836 88.2394 60.7412 89.2978 64.9717C90.6641 70.441 88.4628 74.8284 84.5629 78.3512C81.3136 81.2859 77.2644 82.8871 73.0374 83.9481C69.3105 84.8825 65.5585 85.0512 61.7796 84.3848C61.385 84.1027 61.4763 83.709 61.5419 83.3195C63.026 83.5621 64.532 83.3398 65.9995 83.257C70.0396 83.0263 74.0096 82.1937 77.7376 80.5251L77.7383 80.5231Z" fill="white"/>
<path d="M47.9504 22.8945C49.4654 26.4134 49.2537 29.9547 47.8609 33.375C45.2723 39.7324 40.5542 44.3132 35.1141 48.2256C34.8041 48.1824 34.4941 48.1392 34.1817 48.0977C35.1022 46.9614 36.0935 45.8936 37.1465 44.8738C39.5973 42.5017 41.8841 39.9869 43.7869 37.1311C45.8279 34.0665 47.1833 30.8013 47.0237 27.0226C46.9016 24.1246 45.8801 21.7458 43.1726 20.4741C40.4688 19.205 37.9884 20.1088 36.0079 22.0075C34.2159 23.7246 32.7225 25.7796 32.2046 28.3486C31.9527 28.2045 31.7005 28.0625 31.4482 27.9205C31.9285 24.852 33.301 22.28 35.6243 20.22C39.885 16.4387 45.8878 18.1019 47.9501 22.8965L47.9504 22.8945Z" fill="white"/>
<path d="M14.2231 26.2208C15.5523 19.8124 22.1063 18.6854 26.0231 21.254C28.4507 22.8453 30.1242 24.9662 30.8734 27.8014C30.6851 27.7713 30.4948 27.7408 30.3059 27.7148C29.7099 25.9166 28.3389 24.6998 27.0702 23.4336C24.9835 21.3504 21.9001 20.762 19.3672 21.9285C16.6755 23.1691 15.6471 25.5188 15.5375 28.3034C15.3544 33.0312 17.4587 36.9197 20.2454 40.4789C22.145 42.9049 24.1749 45.2248 26.1471 47.5904C25.753 47.8239 25.3557 47.6968 24.9599 47.5997C24.8494 47.4634 24.7576 47.3026 24.6238 47.1943C20.0614 43.5058 16.5698 39.0396 14.6137 33.4105C13.7872 31.0332 13.7122 28.6808 14.2234 26.2188L14.2231 26.2208Z" fill="white"/>
</svg>
