<svg width="58" height="58" viewBox="0 0 58 58" fill="none" xmlns="http://www.w3.org/2000/svg">
<g clip-path="url(#clip0_2623_733)">
<path d="M51.3157 57.9992H38.9678C38.7774 56.3029 38.5575 54.6099 38.4023 52.9113C38.2244 50.9691 37.3484 49.8291 35.4842 49.275C34.658 49.0302 33.8205 48.8228 32.9876 48.5985C33.025 47.7169 33.0375 46.833 33.1111 45.9548C33.144 45.5684 33.0817 45.2534 32.8301 44.9701C33.9327 43.9706 34.6569 42.7695 34.8019 41.2612C34.9742 41.2431 35.1465 41.225 35.3187 41.2068C36.1482 42.3457 36.2004 43.6488 36.1018 44.9769C36.0519 45.6443 36.3114 45.9491 36.9699 45.8698C37.4141 45.8154 37.8572 45.7123 38.2878 45.5899C38.9474 45.4018 39.1967 44.8896 38.9599 44.2324C38.4692 42.8658 37.8889 41.5456 36.9211 40.434C37.524 39.7156 37.7903 38.9439 37.2962 38.0532C37.1795 37.7314 36.8883 37.5456 36.6956 37.2838C36.8361 35.192 36.4531 33.2452 35.1544 31.5341C34.9527 31.2678 34.6342 31.0877 34.547 30.7352C34.9459 30.6491 35.3448 30.5641 35.7437 30.478C36.3012 31.55 37.0945 32.3931 38.1552 32.98C39.7203 34.0135 41.4383 34.3432 43.2583 33.9625C45.365 33.5228 47.0014 32.3817 48.0622 30.4746C49.2611 30.7624 50.4715 31.0061 51.6557 31.346C54.1137 32.052 55.7014 33.5546 55.9779 36.2232C56.1287 37.6782 56.3644 39.1263 56.497 40.5825C56.6126 41.8527 56.8562 43.1117 56.863 44.3922C55.0498 44.5814 53.2377 44.7763 51.4245 44.9576C50.9508 45.0052 50.7015 45.2171 50.7253 45.7168C50.8239 47.7645 50.9066 49.8132 51.012 51.8609C51.1163 53.9074 51.2874 55.9505 51.3123 58.0015L51.3157 57.9992Z" fill="#D73D3D"/>
<path d="M19.0304 58.0007H6.68362C6.73688 56.7395 6.78221 55.4783 6.84341 54.2182C6.97826 51.4148 7.11992 48.6113 7.26044 45.8078C7.28651 45.2809 7.05306 45.0067 6.51589 44.9534C4.71855 44.7767 2.92234 44.584 1.125 44.3982C1.125 43.9461 1.18846 43.5019 1.24173 43.0531C1.52504 40.6701 1.75169 38.2814 2.05767 35.9017C2.29112 34.0864 3.24192 32.7356 4.90214 31.9084C6.46716 31.1288 8.19651 30.9294 9.8556 30.4795C10.7985 31.6988 11.7311 32.9271 12.6876 34.1362C13.2576 34.8569 13.7053 34.8694 14.3807 34.2167C14.8544 33.7589 15.3213 33.2932 15.7723 32.8138C15.9933 32.5793 16.1508 32.5827 16.3695 32.8138C16.8353 33.3056 17.3169 33.7827 17.8008 34.2575C18.4253 34.8694 18.9012 34.8297 19.4452 34.1328C19.7002 33.8065 19.9699 33.4926 20.2113 33.156C20.8686 32.2416 21.6675 31.4336 22.233 30.4512C22.6342 30.5441 23.0354 30.637 23.4377 30.7311C23.4105 30.7991 23.3991 30.8829 23.3527 30.9328C21.6732 32.7311 21.1088 34.8875 21.3026 37.2887C21.1111 37.5482 20.8119 37.7272 20.7144 38.0593C20.1988 38.9511 20.5071 39.7137 21.085 40.4344C20.0685 41.563 19.4747 42.9194 19.0112 44.3393C18.8151 44.9398 19.0916 45.4214 19.7047 45.6039C20.0458 45.7047 20.4017 45.758 20.7507 45.8316C21.6766 46.0277 21.9576 45.7739 21.893 44.8152C21.8069 43.5347 21.918 42.295 22.6557 41.1868C22.8087 41.1857 22.9617 41.1845 23.1147 41.1834C23.228 41.6151 23.3277 42.0514 23.4592 42.4775C23.7765 43.5053 24.4678 44.2928 25.1613 45.0758C24.8542 45.2515 24.8236 45.545 24.8418 45.852C24.895 46.762 24.9517 47.673 25.0072 48.583C24.8871 48.6306 24.7704 48.6895 24.6468 48.7246C23.8196 48.9603 22.9662 49.0906 22.1514 49.3807C20.8924 49.8295 19.9631 50.6521 19.75 51.9768C19.4282 53.9723 19.2628 55.9927 19.0316 58.003L19.0304 58.0007Z" fill="#70BAEE"/>
<path d="M40.2147 0H44.2933C44.2684 0.240231 44.4644 0.193771 44.5891 0.216435C46.3989 0.535988 47.9662 1.3734 49.3691 2.52243C52.3791 4.9848 53.6902 8.22226 53.6925 12.0603C53.6948 16.891 53.1939 21.6956 52.9831 26.515C52.9423 27.46 52.336 27.9756 51.3863 27.979C49.878 27.9858 48.3696 27.9813 46.8601 27.9813C45.9663 27.9813 45.5168 28.4308 45.5115 29.3298C45.3608 29.1745 45.4152 28.9773 45.4152 28.7972C45.4152 27.996 45.4265 27.1949 45.4322 26.3937C45.6577 26.26 45.881 26.1206 46.1099 25.9926C48.0421 24.9138 49.3997 23.3478 50.2179 21.2831C50.8356 19.725 50.7664 18.1069 50.7676 16.4898C50.7676 15.6264 50.4922 15.3476 49.6366 15.283C48.2812 15.1788 46.9428 14.9748 45.6464 14.5555C43.1022 13.7317 40.9037 12.3662 39.1018 10.3764C38.4208 9.62512 38.1306 9.62398 37.3782 10.3311C36.9645 10.7198 36.5101 11.0529 36.0239 11.3464C35.3848 11.6671 34.7343 11.9538 34.0362 12.1317C33.5092 12.2654 33.0775 12.5634 33.0899 13.1697C33.133 15.3136 32.9199 17.4666 33.2032 19.6026C33.4696 21.6163 34.4249 23.29 35.897 24.6826C36.6427 25.3886 37.5515 25.8464 38.4015 26.396C38.3868 26.9354 38.372 27.4748 38.3584 28.0141C36.4149 28.0005 34.4725 27.9869 32.529 27.9756C31.5974 27.97 31.007 27.4294 30.9435 26.5014C30.9175 26.1252 30.9299 25.7467 30.9084 25.3693C30.7679 22.9614 30.6206 20.5534 30.4778 18.1454C30.3916 16.6961 30.3225 15.2468 30.2228 13.7986C30.0607 11.4574 30.293 9.16845 31.1668 6.97804C31.7051 5.62844 32.5426 4.46921 33.9138 3.88676C34.6833 3.56041 35.2544 3.10941 35.7893 2.47937C36.8399 1.24195 38.2927 0.649304 39.8317 0.25043C39.9733 0.214169 40.2555 0.33995 40.2113 0.00226633L40.2147 0Z" fill="#7F7268"/>
<path d="M18.1256 0C18.163 0.33995 18.4758 0.253829 18.656 0.298023C21.4245 0.988121 23.6219 2.51223 25.2583 4.83296C26.2193 6.19502 26.7508 7.73386 26.9639 9.38602C27.1497 10.8263 27.2155 12.2722 27.1622 13.7226C26.5287 13.1402 25.8147 12.7527 24.9195 12.8184C23.7942 12.2869 23.1652 11.394 22.9601 10.1747C22.6586 8.37977 22.3583 8.169 20.5247 8.42169C20.4873 8.42736 20.4511 8.43643 20.4137 8.44209C17.8106 8.78544 15.2029 8.8081 12.5908 8.55088C11.9777 8.46362 11.3657 8.36164 10.7504 8.29138C9.99904 8.20526 9.44034 8.62226 9.26922 9.37242C9.13663 9.95714 9.13663 10.5702 8.85898 11.1243C8.46688 11.9073 7.96484 12.6291 7.06391 12.781C6.26949 12.9158 5.57708 13.1617 4.99005 13.7057C5.04445 12.0558 4.85179 10.3979 5.21443 8.75938C5.77086 6.24148 7.04804 4.17005 9.02557 2.53149C10.424 1.37226 12.0276 0.616443 13.8045 0.233432C13.9416 0.20397 14.0708 0.188106 14.047 0L18.1256 0Z" fill="#4C4846"/>
<path d="M19.0303 58.0008C19.2626 55.9906 19.4269 53.9701 19.7488 51.9746C19.9618 50.65 20.8911 49.8273 22.1501 49.3786C22.9649 49.0885 23.8183 48.9581 24.6456 48.7224C24.7691 48.6873 24.8858 48.6284 25.0059 48.5808C25.287 48.6556 25.5374 48.4766 25.8117 48.4867C25.8151 48.693 25.8264 48.8992 25.8219 49.1043C25.8105 49.757 25.9329 50.3655 26.3704 50.8777C27.3336 52.5186 29.6942 52.8324 31.121 51.5236C32.0242 50.6953 32.2236 49.638 32.1828 48.4879C32.4514 48.5241 32.72 48.5615 32.9886 48.5978C33.8204 48.8222 34.659 49.0295 35.4851 49.2743C37.3482 49.8273 38.2253 50.9673 38.4033 52.9106C38.5585 54.6092 38.7772 56.3033 38.9688 57.9986H19.0314L19.0303 58.0008Z" fill="#F8B838"/>
<path d="M0 52.6774C0.271981 52.7782 0.19832 52.5391 0.209652 52.4383C0.412505 50.6116 0.600625 48.7838 0.803478 46.9583C0.898671 46.1039 1.01766 45.2517 1.12532 44.3984C2.92267 44.5854 4.71774 44.7781 6.51622 44.9537C7.05338 45.007 7.28796 45.2812 7.26077 45.8081C7.12024 48.6116 6.97859 51.415 6.84373 54.2185C6.78253 55.4785 6.7372 56.7398 6.68394 58.001H2.15205C2.26651 57.8695 2.11919 57.8355 2.06139 57.8163C1.13552 57.5069 0.556428 56.8565 0.213052 55.9658C0.182454 55.8853 0.162055 55.7199 0 55.8491L0 52.6774Z" fill="#DB995D"/>
<path d="M56.8668 44.3898C57.0935 46.3366 57.3212 48.2822 57.5456 50.229C57.634 50.9962 57.7077 51.7656 57.8017 52.5327C57.8142 52.6313 57.7224 52.8704 58.0001 52.7877V55.7328C57.821 55.6274 57.8255 55.811 57.8006 55.8812C57.4595 56.8422 56.8385 57.5164 55.8503 57.8292C55.7925 57.8473 55.6372 57.8507 55.7336 57.998H51.3161C51.2912 55.947 51.1201 53.9039 51.0158 51.8574C50.9116 49.8097 50.8277 47.761 50.7291 45.7133C50.7053 45.2136 50.9546 45.0017 51.4283 44.9541C53.2415 44.7717 55.0536 44.5779 56.8668 44.3887V44.3898Z" fill="#E9B782"/>
<path d="M23.437 30.7305C23.7917 30.6103 23.9957 30.2965 24.2778 30.0812C27.2016 27.8465 31.2689 27.9678 34.0499 30.3792C34.2051 30.5129 34.34 30.6772 34.5508 30.7339C34.6381 31.0851 34.9565 31.2664 35.1582 31.5327C36.4569 33.245 36.84 35.1906 36.6994 37.2824C36.1339 36.8552 35.4155 36.8348 34.791 36.5663C34.5168 36.2501 34.1825 36.4677 33.8946 36.4983C32.1018 36.692 30.5255 36.3691 29.4092 34.7883C29.1531 34.4268 28.8131 34.4495 28.5763 34.8076C27.9677 35.7266 27.0826 36.2048 26.0548 36.479C24.9646 36.6785 23.8438 36.1708 22.7468 36.7056C22.2924 36.9277 21.7586 37.0229 21.303 37.287C21.1093 34.8858 21.6736 32.7294 23.3531 30.931C23.3996 30.8812 23.4109 30.7973 23.4381 30.7293L23.437 30.7305Z" fill="#986123"/>
<path d="M45.5119 29.3291C45.53 29.6667 45.6762 29.8514 46.0377 29.9308C46.7211 30.0792 47.3908 30.2888 48.0674 30.4736C47.0067 32.3807 45.3702 33.5218 43.2635 33.9614C41.4435 34.3422 39.7255 34.0124 38.1605 32.979C38.9254 32.6753 39.6938 32.3818 40.453 32.0645C41.0015 31.8356 41.329 31.4141 41.337 30.809C41.3528 29.6996 41.337 28.5891 41.3449 27.4797C41.346 27.235 41.2724 27.0979 41.0117 27.0548C40.1244 26.9086 39.2665 26.6378 38.403 26.3953C37.553 25.8468 36.6442 25.3879 35.8985 24.6819C34.4264 23.2893 33.4711 21.6156 33.2047 19.602C32.9214 17.4659 33.1345 15.3141 33.0914 13.169C33.0789 12.5627 33.5107 12.2647 34.0377 12.131C34.7369 11.9542 35.3863 11.6675 36.0254 11.3457C36.0254 13.8341 36.0107 16.3226 36.0299 18.811C36.0367 19.7198 36.2657 20.6037 36.6136 21.4377C37.3876 23.2949 38.6104 24.7953 40.3669 25.8049C41.8651 26.6661 43.4131 27.3358 45.156 26.4327C45.2342 26.3919 45.3408 26.4055 45.4337 26.393C45.4269 27.1942 45.4167 27.9953 45.4167 28.7965C45.4167 28.9766 45.3623 29.1727 45.513 29.3291H45.5119Z" fill="#E9B782"/>
<path d="M26.0548 36.4804C27.0827 36.2062 27.9678 35.728 28.5763 34.809C28.8132 34.4509 29.1543 34.4282 29.4093 34.7897C30.5255 36.3705 32.1019 36.6923 33.8947 36.4997C34.1826 36.4691 34.518 36.2515 34.7911 36.5677C34.8274 37.481 34.6495 38.4023 34.884 39.3088L34.8772 40.7785C34.8455 40.8193 34.8149 40.859 34.7832 40.8998C34.79 41.021 34.7968 41.1423 34.8036 41.2635C34.6574 42.7718 33.9332 43.9729 32.8317 44.9724C32.4079 45.4064 31.8106 45.5865 31.3607 45.9809C30.9256 46.0183 30.5493 46.2846 30.0518 46.1169C27.7185 45.3304 26.056 43.0743 26.0537 40.6017C26.0537 39.2283 26.0537 37.8549 26.0537 36.4815L26.0548 36.4804Z" fill="#FBE2BA"/>
<path d="M38.4041 26.3957C39.2688 26.637 40.1255 26.909 41.0128 27.0552C41.2724 27.0982 41.3471 27.2353 41.346 27.4801C41.3392 28.5895 41.3539 29.7 41.3381 30.8093C41.329 31.4145 41.0026 31.836 40.4541 32.0649C39.6949 32.3822 38.9265 32.6757 38.1616 32.9794C37.1008 32.3924 36.3064 31.5493 35.75 30.4773C36.3518 30.219 36.9954 30.1079 37.6289 29.9742C38.0947 29.8768 38.3282 29.675 38.327 29.1969C38.327 28.8025 38.3497 28.4082 38.3622 28.0127C38.3769 27.4733 38.3916 26.9339 38.4052 26.3945L38.4041 26.3957Z" fill="#DB995D"/>
<path d="M36.9257 40.432C37.8935 41.5436 38.4737 42.8637 38.9644 44.2303C39.2001 44.8887 38.9519 45.4009 38.2924 45.5879C37.8606 45.7114 37.4186 45.8134 36.9744 45.8678C36.316 45.9482 36.0565 45.6423 36.1063 44.9748C36.2049 43.6467 36.1528 42.3436 35.3232 41.2048C35.908 41.0518 36.4599 40.8286 36.9268 40.4297L36.9257 40.432Z" fill="#986123"/>
<path d="M31.3603 45.9792C31.8102 45.5837 32.4086 45.4036 32.8313 44.9707C33.0829 45.254 33.1441 45.5701 33.1123 45.9554C33.0387 46.8336 33.0262 47.7175 32.9888 48.5991C32.7202 48.5628 32.4517 48.5254 32.1831 48.4892C31.4635 48.4201 31.3127 47.9135 31.2708 47.3141C31.2391 46.8642 31.3071 46.4223 31.3603 45.9792Z" fill="#E9B782"/>
<path d="M36.926 40.4316C36.4591 40.8304 35.9072 41.0525 35.3225 41.2067C35.1502 41.2248 34.978 41.2429 34.8046 41.261C34.7978 41.1398 34.791 41.0185 34.7842 40.8973C34.8159 40.8565 34.8465 40.8168 34.8782 40.776C34.8805 40.2865 34.8828 39.797 34.885 39.3063C35.8381 39.1726 36.6914 38.8463 37.3011 38.0508C37.7952 38.9415 37.5289 39.7131 36.926 40.4316Z" fill="#E9B782"/>
<path d="M37.3015 38.052C36.6918 38.8475 35.8396 39.1738 34.8854 39.3075C34.6509 38.401 34.8288 37.4797 34.7925 36.5664C35.4181 36.8338 36.1354 36.8554 36.7009 37.2826C36.8936 37.5455 37.1837 37.7313 37.3015 38.052Z" fill="#F6CE9B"/>
<path d="M31.361 45.9789C31.3066 46.4219 31.2397 46.8639 31.2714 47.3137C31.3134 47.9132 31.4641 48.4186 32.1837 48.4888C32.2256 49.639 32.0262 50.6962 31.1218 51.5246C29.6951 52.8323 27.3356 52.5195 26.3712 50.8776C26.9118 50.5682 27.5102 50.405 28.0915 50.1988C28.6207 50.0118 28.963 49.6571 28.9868 49.094C29.0197 48.3438 28.9925 47.5902 28.9981 46.8378C29.0004 46.5919 28.9245 46.4605 28.6491 46.4423C27.9521 46.397 27.288 46.193 26.6251 45.9868C26.1367 45.682 25.6482 45.3772 25.1598 45.0723C24.4651 44.2893 23.7738 43.5018 23.4576 42.474C23.3262 42.0479 23.2276 41.6117 23.1131 41.1799C23.1109 40.6575 23.1086 40.1351 23.1052 39.6116C23.1041 39.4212 23.1097 39.2082 22.8411 39.2059C21.9277 39.1946 21.2784 38.7062 20.7129 38.0569C20.8104 37.7249 21.1095 37.5458 21.3011 37.2864C21.7566 37.0223 22.2892 36.926 22.7448 36.705C23.8418 36.1702 24.9637 36.679 26.0528 36.4784C26.0528 37.8518 26.0517 39.2252 26.0528 40.5986C26.0551 43.0723 27.7164 45.3273 30.0509 46.1137C30.5484 46.2814 30.9247 46.014 31.3598 45.9777L31.361 45.9789Z" fill="#F6CE9B"/>
<path d="M19.6128 29.1738C20.4865 29.5988 21.3591 30.0248 22.2329 30.4498C21.6674 31.4322 20.8684 32.2402 20.2112 33.1546C19.9698 33.4901 19.7001 33.8051 19.4451 34.1314C18.9011 34.8283 18.4251 34.868 17.8007 34.2561C17.3168 33.7813 16.8352 33.3054 16.3694 32.8124C16.1507 32.5813 15.992 32.5767 15.7722 32.8124C15.3212 33.2929 14.8543 33.7575 14.3806 34.2153C13.7051 34.868 13.2586 34.8555 12.6875 34.1348C11.731 32.9257 10.7983 31.6985 9.85547 30.4781C10.7519 30.0452 11.6471 29.6135 12.5436 29.1806C13.5657 30.1529 14.5925 31.1229 15.609 32.1008C15.8923 32.3728 16.111 32.4657 16.4465 32.1235C17.3146 31.2396 18.2268 30.3988 19.1176 29.5376C19.2672 29.3925 19.4111 29.2464 19.6117 29.1738H19.6128Z" fill="#FBE2BA"/>
<path d="M22.6551 41.1868C21.9162 42.2939 21.8051 43.5348 21.8924 44.8152C21.957 45.7739 21.6759 46.0277 20.7501 45.8317C20.401 45.758 20.0452 45.7048 19.7041 45.6039C19.091 45.4215 18.8145 44.9399 19.0105 44.3393C19.474 42.9194 20.069 41.5642 21.0844 40.4355C21.5445 40.8186 22.0737 41.0577 22.6551 41.188V41.1868Z" fill="#986123"/>
<path d="M25.1606 45.0742C25.6491 45.379 26.1375 45.6839 26.6259 45.9887C26.6236 46.3989 26.5795 46.8136 26.6282 47.2182C26.7098 47.8901 26.5035 48.3343 25.8122 48.4873C25.5391 48.4771 25.2875 48.6562 25.0065 48.5814C24.951 47.6714 24.8943 46.7604 24.841 45.8504C24.8229 45.5422 24.8535 45.2499 25.1606 45.0742Z" fill="#DB995D"/>
<path d="M22.6554 41.1861C22.074 41.0558 21.5448 40.8167 21.0847 40.4337C20.5067 39.713 20.1974 38.9504 20.7141 38.0586C21.2796 38.7079 21.929 39.1974 22.8424 39.2076C23.111 39.211 23.1042 39.4229 23.1064 39.6133C23.1098 40.1357 23.1121 40.6592 23.1144 41.1816C22.9614 41.1816 22.8084 41.1839 22.6554 41.185V41.1861Z" fill="#E9B782"/>
<path d="M45.4317 26.3941C45.3388 26.4065 45.2323 26.3941 45.1541 26.4337C43.4111 27.3369 41.8631 26.6683 40.365 25.806C38.6084 24.7963 37.3856 23.296 36.6116 21.4387C36.2648 20.6047 36.0348 19.7208 36.028 18.812C36.0099 16.3236 36.0234 13.8352 36.0234 11.3467C36.5085 11.0533 36.964 10.7201 37.3777 10.3314C38.1302 9.62433 38.4203 9.62433 39.1014 10.3768C40.9032 12.3666 43.1018 13.7321 45.6459 14.5559C46.9424 14.9751 48.2807 15.1802 49.6361 15.2834C50.4917 15.3491 50.7671 15.6279 50.7671 16.4902C50.7671 18.1084 50.8351 19.7254 50.2175 21.2835C49.3993 23.3481 48.0416 24.913 46.1094 25.9929C45.8805 26.121 45.6573 26.2604 45.4317 26.3941Z" fill="#F6CE9B"/>
<path d="M19.6131 29.1747C19.4125 29.2472 19.2686 29.3934 19.119 29.5385C18.2283 30.3997 17.316 31.2405 16.4479 32.1244C16.1125 32.4654 15.8938 32.3737 15.6105 32.1017C14.5928 31.1238 13.5672 30.1538 12.545 29.1815C12.545 28.3906 12.5337 27.5985 12.5518 26.8075C12.5597 26.4903 12.4793 26.3021 12.171 26.1458C9.42856 24.7599 7.82274 22.5208 7.28331 19.5122C7.19378 19.0148 7.15978 18.4958 7.19038 17.9926C7.21985 17.5156 7.01926 17.3989 6.59996 17.3263C5.53696 17.1428 4.77428 16.5796 4.48983 15.4804C4.31078 14.7869 4.59976 14.2339 4.9896 13.7047C5.57663 13.1608 6.26904 12.9149 7.06346 12.7801C7.96439 12.6282 8.46643 11.9053 8.85853 11.1234C9.13618 10.5693 9.13505 9.95622 9.26877 9.3715C9.43989 8.62135 9.99859 8.20434 10.7499 8.29046C11.3653 8.36072 11.9773 8.4627 12.5903 8.54996C12.4022 8.86951 12.1393 9.15053 12.1223 9.55508C12.0622 10.9341 11.5874 12.1183 10.4938 13.0124C10.1799 13.2685 10.0734 13.6061 10.0768 14.013C10.0904 15.69 10.0802 17.366 10.0836 19.0431C10.0858 20.0448 10.2354 21.0284 10.555 21.9768C11.0502 23.4477 11.9931 24.6353 12.9496 25.8307C13.923 27.0455 15.207 27.0183 16.5545 26.9945C17.6095 26.9752 18.5807 26.6319 19.5814 26.3928C19.5916 27.3197 19.6018 28.2478 19.6131 29.1747Z" fill="#DB995D"/>
<path d="M19.5818 26.3922C18.5812 26.6313 17.61 26.9758 16.5549 26.9939C15.2075 27.0177 13.9224 27.0449 12.95 25.8302C11.9936 24.6347 11.0507 23.4471 10.5555 21.9763C10.2359 21.0267 10.0852 20.0442 10.084 19.0425C10.0806 17.3654 10.0908 15.6895 10.0772 14.0124C10.0738 13.6056 10.1804 13.269 10.4943 13.0118C11.5879 12.1177 12.0638 10.9324 12.1228 9.55449C12.1398 9.15108 12.4027 8.87006 12.5908 8.54937C15.2018 8.80773 17.8106 8.78394 20.4136 8.44059C20.451 8.43605 20.4873 8.42586 20.5247 8.42019C22.3583 8.16636 22.6586 8.37713 22.9601 10.1732C23.1641 11.3925 23.7941 12.2854 24.9195 12.8169C24.9217 14.3625 24.9251 15.9082 24.9274 17.4538C24.9875 19.5626 24.5308 21.5253 23.3023 23.2771C22.4739 24.4568 21.4234 25.3758 20.1451 26.0375C19.949 26.1395 19.7099 26.1769 19.583 26.3899L19.5818 26.3922Z" fill="#ECAD6A"/>
<path d="M24.9259 17.4547C24.9236 15.9091 24.9202 14.3634 24.918 12.8178C25.8132 12.7521 26.5261 13.1396 27.1607 13.7221C28.4753 15.4909 27.01 17.1318 25.5311 17.3391C25.3282 17.3675 25.1276 17.4151 24.9259 17.4547Z" fill="#DB995D"/>
<path d="M25.8125 48.4869C26.5038 48.3328 26.71 47.8897 26.6284 47.2178C26.5797 46.8144 26.6239 46.3985 26.6262 45.9883C27.2891 46.1945 27.9532 46.3985 28.6502 46.4438C28.9244 46.4619 29.0015 46.5923 28.9992 46.8393C28.9935 47.5917 29.0207 48.3441 28.9879 49.0954C28.9629 49.6586 28.6207 50.0133 28.0926 50.2003C27.5112 50.4054 26.9129 50.5697 26.3723 50.879C25.9349 50.3668 25.8114 49.7572 25.8238 49.1056C25.8272 48.8994 25.817 48.6943 25.8136 48.488L25.8125 48.4869Z" fill="#E9B782"/>
</g>
<defs>
<clipPath id="clip0_2623_733">
<rect width="58" height="58" fill="white"/>
</clipPath>
</defs>
</svg>
