<svg width="208" height="129" viewBox="0 0 208 129" fill="none" xmlns="http://www.w3.org/2000/svg">
<path fill-rule="evenodd" clip-rule="evenodd" d="M66.0572 141.154C72.4244 139.315 78.7066 137.499 84.2797 134.536L84.2797 134.531C84.0219 134.577 83.7195 134.628 83.3852 134.684L83.384 134.685L83.3838 134.685L83.3837 134.685L83.3833 134.685L83.3831 134.685L83.3827 134.685C82.4861 134.836 81.3597 135.026 80.2447 135.255C75.0802 136.316 70.0225 137.782 64.964 139.248C62.1521 140.063 59.3399 140.878 56.5089 141.624L56.2733 141.685C50.1331 143.299 43.9898 144.914 37.6113 145.274C35.7298 145.382 33.8138 145.48 31.9539 145.247C24.316 144.283 19.2551 140.048 16.8618 132.751C15.0938 127.36 13.6062 121.888 12.1403 116.403C9.01871 104.712 6.11722 92.9781 4.26872 81.007L4.26398 80.9762C3.83331 78.1792 3.80914 78.0222 6.57397 77.2575C10.2193 76.25 13.8898 75.3391 17.5606 74.4281C19.1525 74.033 20.7445 73.6379 22.3345 73.2349C22.7394 73.132 23.1451 73.0313 23.5507 72.9305C24.8613 72.605 26.1718 72.2796 27.4571 71.8811C30.3615 70.9799 30.7286 69.7889 28.9858 67.1907C28.8818 67.0357 28.7579 66.8952 28.6342 66.755C28.5065 66.6103 28.3791 66.4659 28.274 66.3059C26.1214 62.9999 25.3411 59.4136 25.8772 55.4782C26.2014 53.1048 27.4359 51.5689 29.5204 50.5682C34.4059 48.2175 39.545 50.2469 41.8956 55.6632C42.5987 57.282 43.0182 59.0321 43.4346 60.7696C43.5189 61.1212 43.603 61.4722 43.6894 61.8215C44.4137 64.7475 45.0565 65.3173 47.8098 64.6361C52.7037 63.4203 57.576 62.1053 62.4311 60.7427C63.6783 60.3978 64.9643 59.9536 66.0909 58.819C64.6076 58.4219 63.3698 58.6411 62.1537 58.8564L62.1537 58.8564L62.151 58.8569C59.0482 59.4042 55.9496 59.9817 52.8554 60.5679C52.3079 60.6718 51.7361 60.8477 51.1655 61.0233L51.1654 61.0233C49.9368 61.4014 48.7136 61.7777 47.7502 61.4298C46.4811 60.9693 46.3252 59.6172 46.1679 58.2535C46.0936 57.6095 46.019 56.9628 45.8267 56.4063C44.1017 51.4303 40.9567 47.8393 35.8477 46.414C29.0687 44.518 22.0036 48.5124 22.079 58.3772C22.0999 61.2081 23.1307 63.8061 24.442 66.2834C25.1062 67.5437 25.0327 68.2945 23.41 68.7084C19.9572 69.5876 16.5169 70.5168 13.0759 71.4462L13.0753 71.4464C10.7964 72.0619 8.51725 72.6775 6.23398 73.2787C-0.0840393 74.9386 -0.826568 76.2028 0.690926 82.6762C1.56206 86.3932 2.41856 90.1135 3.27502 93.8335L3.27504 93.8336L3.27506 93.8337C5.05067 101.546 6.82606 109.257 8.73107 116.937C8.81966 117.294 8.90802 117.651 8.9964 118.008L8.99649 118.009L8.99755 118.013C10.4828 124.014 11.9712 130.028 14.6085 135.689C17.2956 141.463 21.2259 145.84 27.5561 147.464C32.3674 148.699 37.2652 148.83 42.1677 147.795C47.3593 146.701 52.5078 145.403 57.5312 143.738C60.3531 142.802 63.2136 141.976 66.0572 141.154ZM191.926 119.33C192.23 118.876 192.534 118.423 192.84 117.972L192.84 117.967L193.678 118.006C195.199 125.054 195.388 132.113 193.323 139.147C191.712 144.644 188.647 149.179 183.986 152.565C180.373 155.193 176.399 157.065 171.992 157.901C163.258 159.56 154.658 159.122 146.295 155.957C143.77 155.006 143.801 154.896 144.494 152.407L144.501 152.384C144.602 152.022 144.713 151.663 144.825 151.305C145.014 150.697 145.203 150.09 145.339 149.471C147.464 139.835 143.881 128.649 134.172 123.65C130.543 121.78 126.914 121.119 123.466 123.604C120.039 126.072 119.356 129.714 120.016 133.749C120.774 138.392 122.875 142.311 125.964 145.799C129.342 149.61 133.169 152.869 137.522 155.485C138.834 156.275 139.106 156.97 138.005 158.07C134.642 161.435 130.961 164.092 125.99 164.648C119.007 165.427 112.858 163.204 106.835 160.052C105.506 159.357 104.276 158.499 103.014 157.618C101.241 156.38 99.4055 155.099 97.144 154.168C100.591 158.411 104.699 160.824 108.867 163.216C118.942 169 132.298 168.671 140.762 159.227C141.975 157.872 142.968 158.118 144.391 158.589C153.781 161.69 163.279 162.356 173.122 160.728C186.483 158.513 197.447 146.294 197.817 132.123C197.837 131.374 197.871 130.623 197.905 129.873C198.031 127.095 198.158 124.311 197.543 121.546C197.414 120.959 197.423 120.268 198.471 119.979C199.069 120.147 199.578 120.572 200.103 121.01C200.781 121.575 201.486 122.163 202.441 122.25C203.365 120.822 202.653 119.657 201.989 118.664C200.237 116.053 198.46 113.446 196.471 111.02C194.629 108.772 192.95 109.06 191.595 111.705C190.366 114.107 189.251 116.561 188.136 119.017L188.037 119.235C187.731 119.917 187.562 120.672 187.415 121.41C187.388 121.55 187.351 121.697 187.313 121.846C187.129 122.584 186.927 123.39 187.712 123.835C188.617 124.345 189.033 123.65 189.41 123.019C189.499 122.871 189.586 122.726 189.676 122.601C190.452 121.529 191.19 120.429 191.926 119.33ZM135.103 127.745C140.492 132.161 143.089 137.603 143.087 145.052L143.091 145.047C143.285 146.907 142.823 149.25 142.028 151.52C141.32 153.544 140.776 153.885 139.012 152.866C131.97 148.799 126.223 143.486 123.489 135.566C122.105 131.557 122.921 127.919 125.299 126.215C127.591 124.572 132.088 125.276 135.103 127.745ZM126.785 29.223C125.783 29.2923 124.83 29.3142 123.914 29.3353C121.929 29.381 120.119 29.4227 118.353 29.9331C114.279 31.1102 111.374 33.5305 110.657 37.8629C109.866 42.6354 113.158 47.068 118.155 48.0704C120.623 48.5672 123.143 48.7577 125.676 48.8014C129.888 48.88 130.902 50.0109 130.31 54.1362C129.432 60.2166 128.46 66.2829 127.488 72.3478L127.172 74.3226L127.149 74.4689C126.794 76.6772 126.783 76.7461 129.191 77.0719C130.573 77.2567 131.955 77.4486 133.337 77.6405L133.337 77.6405L133.338 77.6406L133.338 77.6407L133.338 77.6407L133.339 77.6407L133.339 77.6407C138.452 78.3508 143.565 79.0609 148.722 79.4153C152.325 79.6622 152.981 80.4952 152.643 84.1372L152.633 84.248C152.338 87.4686 152.044 90.6686 153.021 93.8943C153.948 96.9584 156.049 98.5685 158.914 99.0956C161.671 99.6054 163.653 98.0826 165.22 95.8476C167.348 92.8144 167.97 89.3839 168.126 85.8195C168.142 85.4538 168.154 85.1103 168.166 84.788L168.166 84.7857C168.31 80.7175 168.334 80.0483 174.195 81.2251C176.519 81.6928 178.868 82.0237 181.216 82.3547C184.986 82.8859 188.756 83.417 192.422 84.5132C193.138 84.7292 193.828 85.0271 194.501 85.5106C189.543 85.9927 184.65 85.422 179.76 84.752C178.834 84.6257 177.905 84.5235 176.976 84.4214L176.975 84.4214L176.975 84.4213L176.975 84.4213C175.901 84.3032 174.827 84.1852 173.758 84.0299C172.144 83.7922 171.462 84.3876 171.401 86.036C171.301 88.9402 171.033 91.8443 169.863 94.5541C168.861 96.8755 167.592 98.8991 165.477 100.556C160.898 104.132 152.552 103.315 149.672 95.0586C148.692 92.2473 148.824 89.3639 148.956 86.4744C148.969 86.21 148.981 85.9456 148.992 85.6813C149.109 83.0015 149.105 82.9497 146.52 82.5952C144.518 82.3198 142.509 82.1067 140.499 81.8936C137.116 81.5348 133.733 81.1761 130.39 80.5201C130.07 80.4569 129.75 80.3965 129.43 80.3361L129.428 80.3357L129.427 80.3356C128.632 80.1857 127.837 80.0357 127.05 79.8418C124.09 79.1162 123.43 78.3565 123.789 75.3575C124.31 71.0051 124.918 66.6645 125.527 62.3235L125.527 62.323L125.528 62.3138C125.742 60.7875 125.956 59.2612 126.166 57.7342C126.195 57.5297 126.251 57.3278 126.307 57.1256L126.307 57.1256C126.353 56.9609 126.399 56.7961 126.43 56.6296L126.431 56.6239L126.431 56.6238C126.769 54.7478 126.936 53.8249 126.552 53.3311C126.179 52.8529 125.29 52.7773 123.539 52.6284L123.539 52.6284L123.44 52.6199C119.647 52.2954 115.983 51.3711 112.812 49.2256C106.25 44.788 105.514 36.4722 111.194 30.9628C114.474 27.7832 121.781 25.2518 126.79 29.2144L126.785 29.223ZM132.282 20.2957L132.282 20.2965C132.016 22.9474 131.748 25.6324 131.472 28.3677L131.476 28.3677C132.41 27.6628 132.551 27.0829 132.682 26.5407L132.682 26.5401L132.682 26.5395C132.697 26.4783 132.712 26.4175 132.728 26.3571C134.088 21.1121 134.987 15.7735 135.886 10.44L135.886 10.4397L135.887 10.4389C135.973 9.92809 136.059 9.41731 136.145 8.90666C136.286 8.07559 136.381 7.37611 136.461 6.78761L136.461 6.78669C136.653 5.37376 136.758 4.60051 137.199 4.18107C137.733 3.67409 138.757 3.68403 141.021 3.70598L141.022 3.70598C141.543 3.71103 142.13 3.71672 142.792 3.71687C142.946 3.71691 143.1 3.74306 143.254 3.76922L143.254 3.76927C143.35 3.78563 143.447 3.802 143.543 3.81198C147.122 4.17629 150.701 4.53474 154.279 4.89318C163.362 5.80286 172.444 6.71245 181.517 7.71752C185.383 8.14563 189.271 8.63849 192.978 10.0677C199.338 12.5203 203.13 16.871 203.741 23.8059C204.112 27.9616 204.369 32.113 204.153 36.2859C203.759 43.9304 202.937 51.5358 202.116 59.1425C201.88 61.326 201.644 63.5096 201.419 65.6942C201.4 65.8786 201.352 66.0704 201.304 66.266C201.131 66.9633 200.946 67.7092 202.001 68.3397C202.205 67.5581 202.426 66.7848 202.645 66.0152L202.646 66.0138C203.117 64.362 203.583 62.7273 203.875 61.0644C206.014 48.8569 207.268 36.5542 207.077 24.1519C206.958 16.4835 203.326 10.8684 196.301 7.74252C193.324 6.42133 190.17 5.40219 186.899 4.96127L186.278 4.87727C181.242 4.19618 176.21 3.51554 171.161 2.94236C163.648 2.09051 156.127 1.29474 148.597 0.57666C145.089 0.243556 141.559 0.0140237 138.037 -0.00836851C135.051 -0.0263185 134.27 0.810674 133.959 3.77955C133.389 9.2325 132.843 14.6874 132.282 20.2957ZM18.8483 31.7573L18.844 31.7492C18.8441 31.2014 18.8371 30.6986 18.8306 30.2265C18.8173 29.2702 18.8058 28.4395 18.8579 27.6146C19.1178 23.4417 19.5417 19.2991 22.0022 15.7007C25.9089 9.9881 31.7524 7.93104 38.2427 7.40177C43.555 6.96715 48.7461 7.86163 53.881 9.36455C62.0235 11.7485 69.691 15.2241 77.1988 19.1053C77.2753 19.1449 77.3553 19.1841 77.4365 19.224C78.0464 19.5233 78.7303 19.859 78.6311 20.6549C78.5335 21.4553 77.8887 21.4781 77.2738 21.4999C77.1263 21.5051 76.9805 21.5103 76.8443 21.5261C76.6134 21.5532 76.3807 21.5702 76.1482 21.5872C75.7507 21.6163 75.3538 21.6454 74.9671 21.7242C74.2292 21.8751 73.3704 22.1209 73.3702 23.0185C73.3743 23.8988 74.2416 24.2528 74.9579 24.3868C79.0702 25.1602 83.2345 25.1525 87.3601 24.6831C89.5998 24.429 90.2604 22.7764 88.8972 20.791C88.4814 20.1847 88.073 19.5715 87.6643 18.9578C86.1268 16.6491 84.5845 14.3334 82.6247 12.3488C82.5328 12.2552 82.4411 12.1572 82.3486 12.0582C81.6987 11.3627 81.003 10.6183 79.8244 11.0147C79.4391 11.9878 79.853 12.784 80.2598 13.5666C80.5961 14.2136 80.9276 14.8512 80.7986 15.5719C80.0785 16.0649 79.5147 15.7892 78.9619 15.5188C78.852 15.4651 78.7425 15.4115 78.6323 15.3643C77.2748 14.7787 75.9205 14.1844 74.566 13.59L74.5635 13.5889L74.5619 13.5882C71.7634 12.3601 68.9646 11.132 66.1364 9.98017C58.9823 7.06997 51.6467 4.7898 43.8577 4.4255C37.0697 4.10891 30.7216 5.16469 24.7613 8.98237C17.2848 13.7687 15.3129 25.162 18.844 31.7492L18.844 31.7573L18.8483 31.7573ZM79.796 21.6002C80.1066 21.7175 80.2322 21.5243 80.362 21.3247C80.4233 21.2304 80.4855 21.1346 80.5686 21.0696C80.4827 21.0149 80.398 20.9566 80.3131 20.8983L80.3124 20.8978C80.1162 20.763 79.9193 20.6276 79.7056 20.5343C79.3581 20.3844 79.2393 20.5986 79.1197 20.8144C79.0671 20.9093 79.0143 21.0046 78.9417 21.0692C79.0056 21.1286 79.0599 21.2024 79.1144 21.2767C79.2661 21.4833 79.4203 21.6933 79.7917 21.6045L79.796 21.6002ZM88.2926 123.767C88.6893 124.928 89.1163 126.119 90.7126 127.388L90.7126 127.375C90.6517 126.878 90.6118 126.46 90.5771 126.098C90.5137 125.435 90.4676 124.953 90.3422 124.493C90.0463 123.413 89.7536 122.333 89.4609 121.253C88.4358 117.471 87.411 113.689 86.2503 109.949C84.9164 105.656 85.3635 105.57 88.0887 105.048C88.3413 104.999 88.6134 104.947 88.9054 104.888C93.1519 104.021 96.527 101.636 99.2982 98.3955C102.492 94.6635 102.934 89.8089 100.613 85.3075C98.2925 80.8017 94.6897 78.9281 89.4119 79.3325C87.1118 79.5089 84.9497 80.1384 82.8134 80.9147L82.7598 80.9342C79.9546 81.9548 79.8036 82.0097 78.8351 79.2351C77.89 76.5321 77.0393 73.7982 76.1885 71.0639C75.6184 69.2317 75.0482 67.3994 74.4496 65.5761C74.3643 65.3174 74.285 65.0542 74.205 64.7887C73.7949 63.4288 73.3668 62.0089 72.0384 60.8243C71.9965 61.0782 71.9514 61.2865 71.9128 61.4642C71.8439 61.782 71.7962 62.0019 71.8266 62.2095C72.869 69.0672 74.7699 75.7191 76.6695 82.3661C76.8821 83.1102 77.0948 83.8543 77.3062 84.5987C77.9401 86.8212 79.3122 87.1754 81.3969 85.7475C83.9692 83.9874 86.7658 82.9654 89.8168 82.6338C94.2272 82.1558 97.489 84.5084 98.3511 88.8283C99.2045 93.1179 97.5898 96.4921 94.137 99.0158C91.5473 100.91 88.5178 101.811 85.4537 102.608C81.9365 103.527 81.6818 103.954 82.7728 107.273C84.5883 112.779 86.421 118.278 88.2926 123.767Z" fill="white"/>
</svg>
