<svg width="125" height="116" viewBox="0 0 125 116" fill="none" xmlns="http://www.w3.org/2000/svg">
<path fill-rule="evenodd" clip-rule="evenodd" d="M110.831 57.9078C113.773 60.255 116.422 62.8895 118.259 66.1889L118.263 66.1865C120.559 70.3039 121.387 74.6539 119.532 79.1869C118.829 80.9019 117.839 82.4818 116.584 83.8671C116.661 84.1013 116.586 84.1819 116.349 84.1041C112.969 87.6959 108.548 88.9137 103.882 89.5386C103.127 89.6391 102.36 89.6575 101.595 89.6757C101.238 89.6843 100.881 89.6928 100.527 89.7097C99.1051 89.9358 97.7741 89.5867 96.4455 89.2382C95.813 89.0724 95.1811 88.9067 94.5402 88.8032C94.2881 88.9827 94.0384 89.1657 93.7887 89.3487C93.7837 89.4892 93.7782 89.629 93.7726 89.7685L93.7726 89.7688L93.7726 89.7692C93.7662 89.9306 93.7598 90.0915 93.7543 90.2526C93.8162 90.3738 93.8773 90.4956 93.9383 90.6174C93.9784 90.6974 94.0186 90.7774 94.0589 90.8573C94.08 90.8989 94.1011 90.9406 94.1223 90.9821L94.2174 90.9746L94.108 90.9947C94.2446 91.3542 94.3811 91.7136 94.5182 92.0702L94.6028 92.0185L94.5362 92.0884C95.6252 95.7949 96.2159 99.4988 95.1097 103.347C93.9686 107.325 91.2916 109.492 87.346 110.064C82.7864 110.726 78.9872 109.048 75.9367 105.684C74.9965 104.648 74.1261 103.55 73.2081 102.391C72.7751 101.844 72.3315 101.284 71.865 100.711C71.3047 101.618 70.9114 102.563 70.5266 103.487C70.0742 104.573 69.6335 105.632 68.9471 106.567C64.4476 112.701 58.6784 116.265 50.8258 115.775C48.1312 115.608 45.7594 114.601 43.6491 112.979C38.9518 109.37 36.3433 104.466 35.0419 98.7965C34.9261 98.2878 34.933 97.7495 34.94 97.2127C34.9432 96.9654 34.9464 96.7184 34.9376 96.4747C34.9713 96.5411 35.0066 96.5987 35.0469 96.645C35.0071 96.5957 34.9719 96.5382 34.9376 96.4747C34.3459 95.6973 34.3579 94.8076 34.3698 93.9277L34.3699 93.9274C34.3726 93.7257 34.3753 93.5245 34.3707 93.3253C34.34 92.0683 33.7331 92.34 33.0898 92.628L33.0898 92.6281L33.0882 92.6287C33.0344 92.6528 32.9803 92.677 32.9264 92.7004C27.5373 97.2342 21.3448 98.5197 14.6043 96.8584C7.66108 95.1466 4.33484 88.2308 5.63729 81.8991C6.49662 77.7177 9.1493 74.5849 11.9926 71.6065C13.9738 69.529 16.0287 67.531 18.9606 66.8081C19.0507 66.786 19.1399 66.7598 19.229 66.7338C19.6367 66.6144 20.0416 66.4959 20.5138 66.7597C19.1932 69.1735 17.1667 70.9407 15.0744 72.5997C11.8981 75.1147 9.82792 78.3737 8.47055 82.1021C6.91636 86.3674 8.49028 90.8783 12.3679 93.5586C12.9462 93.9583 13.5798 94.2823 14.2117 94.6053L14.2123 94.6056C14.5083 94.757 14.804 94.9081 15.0935 95.0668C15.9861 95.2247 16.8778 95.3831 17.7689 95.5414L17.7893 95.5451L17.7959 95.5462C18.6872 95.7046 19.5777 95.8628 20.4676 96.0202C23.9846 95.6507 27.4328 95.0696 30.4714 93.0474C30.9044 92.7593 31.4025 92.5675 31.8994 92.3762C32.129 92.2878 32.3583 92.1995 32.5808 92.1018C32.8719 91.6035 33.3323 91.3895 33.8292 91.1585C34.202 90.9853 34.5953 90.8024 34.9532 90.4829C35.0216 91.2687 35.1631 92.0153 35.301 92.7424C35.5536 94.0746 35.7937 95.3412 35.5485 96.6633C36.7182 101.031 38.2508 105.278 41.3329 108.668C47.4215 115.363 55.5931 115.688 62.7452 109.942C66.4037 107.004 68.7097 103.227 69.6958 98.6326C69.7395 98.4306 69.762 98.2094 69.7848 97.9853C69.8615 97.2305 69.9417 96.4418 70.8474 96.2345C71.9928 95.9738 72.529 96.9225 72.9793 97.7194C73.0365 97.8206 73.0923 97.9194 73.1478 98.0129C74.5273 100.337 75.9617 102.59 77.9203 104.49C80.4035 106.899 83.2766 108.324 86.8058 108.074C89.6223 107.872 91.7259 106.563 92.9688 103.954C94.0154 101.758 94.2572 99.4459 93.9854 97.0797C93.8554 95.9399 93.6507 94.8104 93.446 93.681L93.446 93.6808L93.4459 93.6802L93.4458 93.6795C93.3558 93.1833 93.2659 92.687 93.1823 92.1899L93.1611 92.2073C93.0064 91.7268 92.8542 91.2497 92.7073 90.7766C91.8891 89.3727 91.5076 87.8397 91.2358 86.0086C92.8378 86.7003 94.2934 87.3301 95.7431 87.9588C100.697 88.9474 105.431 88.2046 109.992 86.1376C117.114 82.911 119.864 74.9767 116.088 67.7645C114.123 64.0165 110.969 61.4508 107.586 59.105C107.231 58.8582 106.859 58.63 106.48 58.4154L106.352 58.3431C105.385 57.7992 104.333 57.2071 104.551 55.9312C104.765 54.6779 106.006 54.3311 107.076 54.0326L107.113 54.0221C109.532 53.3454 111.901 52.5391 114.212 51.5501C117.768 50.0266 120.615 47.8016 122.054 44.0391C123.624 39.9276 122.167 35.1955 118.395 32.8783C115.838 31.3058 113.083 30.4304 109.988 30.6017C107.115 30.7606 104.266 30.9418 101.395 31.6784C104.23 27.4045 106.079 22.8009 106.424 17.6739C106.64 14.453 105.979 11.4653 104.076 8.77721C102.028 5.88526 98.9861 4.85664 95.7377 4.5386C90.1981 3.99461 85.7515 6.27203 82.2854 10.5108C81.5736 11.3807 80.9564 12.3268 80.339 13.2731C80.0556 13.7075 79.7723 14.1419 79.4797 14.569L79.5162 14.5845C79.3711 14.8958 79.2278 15.2079 79.0845 15.5199L79.0841 15.5209L79.0838 15.5215C78.7205 16.3127 78.3573 17.1035 77.9657 17.88L77.9373 17.936C77.6351 18.5342 77.2916 19.214 76.4728 19.1028C75.6366 18.9926 75.4404 18.3174 75.4227 17.5555C75.4103 17.0027 75.33 16.4608 75.2493 15.9159C75.1669 15.36 75.084 14.8008 75.0722 14.2233C74.941 7.51648 68.8765 1.04619 61.0065 3.79719C58.0829 4.81778 56.1521 7.02194 54.8204 9.77541C53.1774 13.1666 52.2506 16.7498 51.9085 20.7739C50.8739 19.7916 50.4203 18.5914 49.9802 17.427C49.7644 16.8558 49.5517 16.2932 49.2754 15.7692C48.7509 14.7762 48.108 13.876 47.466 12.977L47.4659 12.977C47.0547 12.4012 46.644 11.8261 46.2649 11.2274L46.2613 11.2479C46.0704 11.0437 45.8796 10.8387 45.6887 10.6337L45.6873 10.6322C45.4969 10.4277 45.3066 10.2233 45.1161 10.0195L44.9331 10.0117L45.0501 9.89612C44.2769 9.46127 43.5791 8.92381 42.8795 8.38497C42.2372 7.89017 41.5933 7.39422 40.8881 6.9755C33.9934 2.88096 26.4455 7.46892 25.977 14.7176C25.7798 17.7423 26.5322 20.5918 28.4094 23.0608L28.4635 23.1321L28.4636 23.1323C28.5511 23.2472 28.6379 23.3614 28.7197 23.481C28.7518 23.5275 28.7844 23.5745 28.8173 23.6219C29.3951 24.4536 30.0618 25.4136 29.5311 26.3045C29.067 27.085 27.9636 26.9455 27.0601 26.8312C26.9876 26.8221 26.9163 26.813 26.8467 26.8047C23.06 26.35 19.3293 26.7486 15.7965 28.0374C10.1454 30.0978 6.04541 33.8477 4.07758 39.7152C1.65251 46.9508 5.29153 56.1885 11.2446 60.2572C12.4461 61.079 13.66 61.8849 15.0074 62.7796L15.0083 62.7802C15.6528 63.2081 16.3277 63.6563 17.0465 64.1361C13.5129 63.5475 10.93 62.0189 8.65632 60.088C2.28203 54.6789 -0.382427 47.7128 1.53557 39.5753C3.45356 31.4378 9.17366 26.826 17.2106 25.0202C19.9802 24.3959 22.796 23.9912 25.8197 24.1943C25.5543 22.7754 25.0936 21.7636 24.6085 20.7536C22.9076 17.2091 23.2487 13.6049 24.6588 10.1276C26.1719 6.39017 29.0945 4.25391 33.1176 3.6526C37.7612 2.96047 41.8606 4.27096 44.9505 7.66886C45.0752 7.80595 45.2008 7.94328 45.3268 8.08105C47.0282 9.94181 48.8022 11.8821 49.6809 14.3862C49.8539 14.88 50.1346 15.3365 50.4247 15.8083C50.5603 16.0289 50.698 16.2528 50.8277 16.4855C51.6437 16.1726 51.6895 15.5321 51.7338 14.9131L51.7339 14.9129L51.7339 14.9127C51.743 14.7845 51.7522 14.6573 51.768 14.5341C52.1289 11.7315 53.1033 9.20563 54.5614 6.74938C59.1067 -0.906793 69.6122 -1.32496 74.9589 5.87814C75.1128 6.08648 75.2663 6.29776 75.4197 6.50903C75.4221 6.51248 75.5201 6.45405 75.5201 6.45405L75.447 6.5259C75.9992 7.30349 76.2766 8.20408 76.5588 9.1204C76.8417 10.0389 77.1294 10.9733 77.7038 11.8154C78.7056 11.2004 79.3091 10.352 79.8958 9.52728C79.9418 9.4625 79.9878 9.39787 80.0339 9.33351C83.5762 4.40071 88.3694 1.95725 94.4363 1.88925C100.855 1.81632 108.279 6.71709 108.331 15.3628C108.36 19.8933 107.033 23.8628 104.618 27.5722C104.541 27.6896 104.453 27.8005 104.365 27.9112C104.134 28.2021 103.903 28.4924 103.886 28.9012C103.962 29.0602 104.039 29.2186 104.115 29.377L104.117 29.3799C104.194 29.5392 104.271 29.6986 104.347 29.8586C108.194 28.9846 112.026 28.5614 115.898 29.826C119.06 30.8605 121.689 32.5544 123.475 35.4094C123.838 35.993 124.183 36.646 124.312 37.3094C125.101 41.3472 124.854 45.0373 122.12 48.5821C119.21 52.356 115.426 54.2477 111.08 55.5028C110.705 55.6121 110.365 55.8469 110.022 56.0838C109.861 56.1946 109.7 56.3059 109.534 56.405C109.562 57.0787 110.015 57.368 110.45 57.6455C110.583 57.7305 110.714 57.8144 110.831 57.9078ZM17.3594 95.9202C17.5797 95.9739 17.805 96.0164 18.0285 96.0525C17.8045 96.0193 17.5797 95.9739 17.3594 95.9202ZM93.1674 92.2054L93.1714 92.2001C93.1714 92.2001 93.1709 92.203 93.1674 92.2054ZM96.9624 89.1095C96.98 89.1126 96.9976 89.1157 97.0147 89.1217C96.9971 89.1186 96.9795 89.1155 96.9624 89.1095ZM79.5369 50.2509C79.3128 51.4783 78.1269 52.2773 76.8761 52.0491L76.8766 52.0462C75.7543 51.8436 75.01 50.6733 75.2735 49.5314C75.4862 48.6104 76.878 47.6541 77.8371 47.7706C78.9056 47.9004 79.7434 49.1233 79.5369 50.2509ZM58.2315 48.6556C58.4473 47.4751 57.5158 46.1482 56.339 45.9632C55.2449 45.7897 54.1036 46.6962 53.9516 47.8576C53.8168 48.886 54.771 50.0145 55.9326 50.1998C57.0971 50.3856 58.0319 49.7603 58.2309 48.6585L58.2315 48.6556ZM59.4622 59.9888C59.717 60.3375 59.9732 60.688 59.9551 61.1613L59.961 61.1624L60.042 61.1312L59.9668 61.1634C60.1585 61.3522 60.3433 61.5515 60.5281 61.7509C60.93 62.1844 61.3322 62.6183 61.807 62.9458C65.5192 65.5004 68.5845 64.81 70.9604 61.8252C71.1474 61.5899 71.3203 61.3406 71.4932 61.0912C72.0553 60.2805 72.6174 59.4697 73.6647 59.1399C74.3198 61.9753 71.7266 65.4933 68.2781 66.4734C64.1043 67.6589 59.7536 65.2978 58.4143 61.1212C57.9377 61.0853 57.8925 60.7509 57.8504 60.4382C57.8363 60.3341 57.8226 60.2323 57.7933 60.1449C57.5784 59.4905 57.4515 58.5584 58.2077 58.4006C58.8824 58.2588 59.3417 59.0194 59.3357 59.8134C59.3769 59.8722 59.4195 59.9305 59.4622 59.9888Z" fill="white"/>
</svg>
