<svg width="32" height="33" viewBox="0 0 32 33" fill="none" xmlns="http://www.w3.org/2000/svg">
<path d="M21 14.5005C21 14.7657 20.8946 15.0201 20.7071 15.2076C20.5196 15.3952 20.2652 15.5005 20 15.5005H12C11.7348 15.5005 11.4804 15.3952 11.2929 15.2076C11.1054 15.0201 11 14.7657 11 14.5005C11 14.2353 11.1054 13.981 11.2929 13.7934C11.4804 13.6059 11.7348 13.5005 12 13.5005H20C20.2652 13.5005 20.5196 13.6059 20.7071 13.7934C20.8946 13.981 21 14.2353 21 14.5005ZM20 17.5005H12C11.7348 17.5005 11.4804 17.6059 11.2929 17.7934C11.1054 17.981 11 18.2353 11 18.5005C11 18.7657 11.1054 19.0201 11.2929 19.2076C11.4804 19.3952 11.7348 19.5005 12 19.5005H20C20.2652 19.5005 20.5196 19.3952 20.7071 19.2076C20.8946 19.0201 21 18.7657 21 18.5005C21 18.2353 20.8946 17.981 20.7071 17.7934C20.5196 17.6059 20.2652 17.5005 20 17.5005ZM29 16.5005C29.0005 18.7449 28.4199 20.9513 27.3147 22.9047C26.2095 24.8582 24.6174 26.4922 22.6934 27.6478C20.7693 28.8034 18.5788 29.4412 16.3352 29.499C14.0915 29.5569 11.8711 29.0329 9.89 27.978L5.63375 29.3968C5.28136 29.5143 4.9032 29.5314 4.54166 29.446C4.18012 29.3607 3.84948 29.1764 3.58681 28.9137C3.32414 28.651 3.13982 28.3204 3.0545 27.9589C2.96918 27.5973 2.98623 27.2192 3.10375 26.8668L4.5225 22.6105C3.59519 20.8671 3.07725 18.9353 3.008 16.9617C2.93875 14.9882 3.32001 13.0249 4.12284 11.2207C4.92567 9.41652 6.12897 7.81896 7.6414 6.54927C9.15383 5.27957 10.9356 4.37112 12.8516 3.89287C14.7675 3.41462 16.7672 3.37913 18.699 3.78911C20.6307 4.19909 22.4436 5.04375 24.0001 6.25899C25.5566 7.47423 26.8158 9.02809 27.6822 10.8026C28.5485 12.5772 28.9992 14.5258 29 16.5005ZM27 16.5005C26.9995 14.8132 26.6109 13.1486 25.8641 11.6355C25.1174 10.1224 24.0325 8.80132 22.6935 7.77457C21.3545 6.74782 19.7973 6.04287 18.1422 5.71426C16.4872 5.38566 14.7787 5.4422 13.149 5.87952C11.5194 6.31685 10.0121 7.12322 8.74394 8.23627C7.47577 9.34931 6.48065 10.7392 5.83558 12.2984C5.1905 13.8575 4.91277 15.5442 5.02387 17.2279C5.13496 18.9116 5.63191 20.5471 6.47625 22.008C6.54712 22.1307 6.59112 22.267 6.60534 22.4079C6.61956 22.5488 6.60368 22.6912 6.55875 22.8255L5 27.5005L9.675 25.9418C9.77683 25.9071 9.88367 25.8893 9.99125 25.8893C10.1669 25.8896 10.3393 25.9361 10.4912 26.0243C12.1635 26.9918 14.0611 27.5018 15.9931 27.5031C17.925 27.5043 19.8232 26.9966 21.4967 26.0312C23.1702 25.0658 24.5599 23.6767 25.526 22.0036C26.492 20.3305 27.0004 18.4325 27 16.5005Z" fill="white"/>
</svg>
