<svg width="261" height="262" viewBox="0 0 261 262" fill="none" xmlns="http://www.w3.org/2000/svg">
<g clip-path="url(#clip0_2677_13026)">
<path d="M233.068 43.8408C231.804 43.4831 230.538 43.1153 229.271 42.752C230.432 43.4741 231.69 43.8686 233.068 43.8408Z" fill="white"/>
<path d="M136.66 252.296C134.047 248.024 127.287 245.501 121.913 248.451C124.263 248.89 126.861 249.207 129.361 249.886C133.209 250.936 135.615 254.862 134.786 258.714C134.177 261.552 132.815 263.994 130.148 265.525C127.538 267.024 124.738 267.985 121.832 268.723C117.227 269.892 112.515 270.447 107.843 271.218C94.477 273.424 81.104 275.585 67.7409 277.83C66.1303 278.099 65.152 277.822 64.6795 276.167C64.0455 273.956 63.2797 271.786 62.6298 269.58C61.1453 264.561 59.6939 259.527 58.2265 254.498C58.6378 262.373 60.0702 270.033 61.9867 277.618C62.2509 278.663 62.347 279.756 62.7034 280.764C63.2616 282.338 62.3959 283.164 61.1677 283.532C57.2816 284.699 53.4313 286.029 49.3564 286.499C47.7201 286.689 46.753 286.032 46.2157 284.588C45.8872 283.703 45.5828 282.801 45.3395 281.887C41.328 266.732 37.2916 251.581 33.3425 236.41C32.1523 231.834 31.0997 227.215 30.1872 222.578C29.6207 219.686 30.2485 218.678 32.7561 217.318C33.5882 216.867 34.469 216.482 35.3641 216.183C43.4565 213.45 45.0239 212.583 47.8821 222.639C49.7294 229.139 51.4028 235.691 54.137 241.904L54.2259 241.982L54.1451 241.858C54.1369 235.014 51.9055 228.593 50.2437 222.068C49.5885 219.506 49.5329 219.635 52.1813 219.193C59.3827 217.99 65.7394 215.304 69.5446 208.607C72.6204 203.192 73.116 197.398 71.9201 191.341C70.6279 184.806 67.2576 179.272 63.6512 173.84C62.2302 171.7 60.5421 169.719 59.7488 167.219C58.5322 163.385 59.927 160.586 63.7728 159.255C68.035 157.781 72.1348 158.451 75.8971 160.706C81.9987 164.363 85.5812 170.033 87.9907 176.524C89.935 181.761 90.6832 187.268 91.5123 192.745C91.74 194.26 91.8283 195.807 92.7953 197.266C93.8638 195.979 93.7131 194.756 93.7836 193.551C94.2526 185.498 91.809 178.104 88.5819 170.887C86.1356 165.413 82.3922 160.993 77.1844 157.998C72.1063 155.073 66.6987 154.302 61.1865 156.799C56.3661 158.984 54.6647 163.087 56.2571 168.152C56.9149 170.244 57.9855 172.122 59.1408 173.956C60.223 175.674 61.3967 177.341 62.4845 179.055C66.167 184.85 68.9523 190.934 68.8243 198.004C68.7433 202.571 66.9012 206.217 63.8058 209.552C59.7068 213.962 54.0558 214.716 48.9462 216.78C46.2663 211.244 44.8978 210.982 39.9387 211.61C37.2824 211.944 34.6254 212.791 32.1433 213.822C26.846 216.02 25.675 218.488 27.0374 224.059C29.2808 233.235 31.5548 242.405 33.9116 251.556C36.2036 260.458 38.567 269.346 41.0055 278.207C41.7906 281.061 42.547 283.93 43.9293 286.616C45.1402 288.97 46.8227 289.998 49.4598 289.784C54.2451 289.395 58.7867 288.111 63.2367 286.417C64.8472 285.807 66.0865 284.837 66.4742 283.074C66.79 281.651 67.7898 281.238 69.1074 281.049C72.5862 280.554 76.0564 280.005 79.5201 279.41C93.4176 277.032 107.311 274.635 121.206 272.233C125.544 271.482 129.59 269.986 133.181 267.425C138.03 263.962 139.599 257.07 136.671 252.29L136.66 252.296Z" fill="white"/>
<path d="M206.411 160.65C209.538 157.665 212.772 154.777 215.696 151.605C219.225 147.778 219.174 145.315 215.817 141.268C213.291 138.225 210.267 135.694 206.903 133.6C204.811 132.297 202.467 131.817 200.392 133.337C198.499 134.722 197.505 133.99 196.444 132.456C195.985 131.793 195.359 131.241 194.859 130.605C188.345 122.3 188.501 113.918 195.353 105.937C196.757 104.299 198.334 102.834 200.015 101.447C203.843 98.2852 208.499 96.6978 212.838 94.4924C220.294 90.701 221.283 83.8461 215.238 78.079C209.604 72.7017 202.837 72.1125 195.871 74.141C185.871 77.0495 178.843 83.8476 173.539 92.5498C173.207 93.0943 172.852 93.6997 173.071 94.4434C174.377 93.9872 175.34 93.1264 176.13 92.0201C177.787 89.6945 179.799 87.6807 181.869 85.7361C187.094 80.8284 192.944 77.2022 200.337 76.3457C206.169 75.667 210.711 77.744 214.402 82.0052C217.148 85.1777 216.436 88.8701 212.715 90.7992C209.832 92.2929 206.826 93.555 203.888 94.9517C199.67 96.9512 195.941 99.6604 192.999 103.255C184.962 113.075 183.653 121.727 191.283 131.495C191.616 131.92 191.902 132.39 192.171 132.855C193.11 134.484 195.219 135.676 195.225 137.479C195.233 139.291 193.076 140.453 192.186 142.116C192.013 142.437 192.094 142.628 192.453 142.672C195.357 141.309 197.983 139.411 200.428 137.285C202.278 135.676 204.036 135.65 205.931 137.055C208.211 138.752 210.667 140.268 212.721 142.198C216.02 145.292 216.085 146.765 213.005 149.979C208.617 154.557 204.082 159.007 199.48 163.37C190.654 171.748 181.736 180.028 172.866 188.355C171.092 190.023 169.433 191.825 167.565 193.38C165.073 195.455 163.076 195.486 160.6 193.46C158.931 192.095 157.348 190.562 155.993 188.887C153.166 185.389 153.404 183.267 156.645 180.136C161.801 175.161 166.962 170.188 172.096 165.188C172.763 164.536 173.322 163.753 173.821 162.963C173.977 162.719 173.893 162.095 173.684 161.911C173.449 161.701 172.872 161.628 172.574 161.775C171.981 162.063 171.448 162.498 170.948 162.937C166.054 167.189 161.039 171.321 156.345 175.788C154.535 177.513 153.398 177.389 151.537 176.123C145.141 171.783 138.783 167.396 132.533 162.848C126.728 158.623 120.925 154.389 115.532 149.641C110.537 145.247 105.796 140.669 102.703 134.58C99.6222 128.519 102.591 119.578 110.329 119.545C110.842 119.541 111.408 119.638 112.074 118.718C108.969 117.158 106.322 117.662 103.818 119.417C99.7082 122.297 98.621 126.464 98.9721 131.158C99.3993 136.896 102.65 141.234 106.41 145.217C114.736 154.025 124.486 161.158 134.231 168.274C139.045 171.792 143.96 175.175 148.819 178.633C150.297 179.685 151.555 180.747 150.708 182.956C150.171 184.359 150.571 185.932 151.31 187.274C153.497 191.244 156.327 194.613 160.334 196.942C163.163 198.588 165.71 198.334 168.248 196.406C169.97 195.098 171.698 193.815 173.267 192.31C184.292 181.736 195.368 171.219 206.414 160.675L206.411 160.65Z" fill="white"/>
<path d="M132.769 211.063C133.571 203.455 128.677 198.325 120.746 197.81C111.844 197.231 103.525 199.689 95.636 204.126C100.705 203.961 105.346 202.499 110.07 201.487C113.809 200.687 117.595 200.284 121.342 201.143C124.768 201.929 127.815 203.641 128.85 207.247C129.893 210.879 128.215 213.789 125.533 216.228C123.816 217.792 121.882 219.002 119.857 220.105C118.762 220.703 117.693 221.514 118.18 222.963C118.597 224.199 119.865 224.203 120.934 224.246C123.645 224.35 126.392 224.258 128.956 225.277C134.587 227.508 138.692 232.049 134.799 239.379C134.238 240.44 133.356 241.477 133.347 242.925C135.49 242.734 136.612 241.601 137.56 240.261C140.256 236.463 139.726 230.508 136.502 226.744C134.025 223.849 130.758 222.315 127.066 221.179C127.625 219.441 128.782 218.847 129.515 217.911C131.113 215.862 132.496 213.684 132.769 211.063Z" fill="white"/>
<path d="M120.783 122.498C118.674 119.362 117.016 116.132 116.522 112.439C115.66 105.954 119.975 101.394 126.499 101.799C128.287 101.911 129.967 102.315 131.593 103.067C132.697 103.581 133.836 104.024 134.979 104.453C135.484 104.644 136.055 104.69 136.514 104.311C137.18 103.765 136.955 103.062 136.648 102.476C135.523 100.31 134.516 98.0896 133.984 95.7065C132.476 88.9952 137.406 83.5768 144.302 84.3226C146.774 84.5898 149.037 85.475 151.149 86.74C154.426 88.6992 157.254 91.2038 159.933 93.8964C161.094 95.0604 162.12 96.4646 163.983 97.0106C163.956 95.5004 163.118 94.7448 162.407 93.9674C158.216 89.392 153.981 85.1549 147.891 82.6687C138.618 78.8832 130.526 86.0813 130.809 92.5854C130.902 94.7291 131.244 96.8471 131.503 99.5467C124.21 98.3285 117.798 98.5647 114.825 106.227C112.727 111.63 115.381 118.569 120.779 122.497L120.783 122.498Z" fill="white"/>
<path d="M62.1016 56.7422C72.1972 70.2426 81.6191 84.2822 96.0669 95.0193C86.9929 79.4937 74.1942 68.4022 62.1016 56.7422Z" fill="white"/>
<path d="M159.095 255.159C172.279 261.616 185.013 267.292 198.624 270.514C190.126 263.885 165.796 254.14 159.095 255.159Z" fill="white"/>
<path d="M113.823 72.3197C113.596 72.0299 113.29 71.7465 113.24 71.4298C112.075 64.1048 107.802 58.2293 103.875 52.2784C101.902 49.291 99.5969 46.5071 97.8939 43.3174C96.9814 41.6141 95.9041 39.9986 94.3076 38.8027C97.1602 46.269 100.775 53.3077 104.697 60.2026C107.22 64.6374 110.074 68.8057 113.819 72.3184L113.823 72.3197Z" fill="white"/>
<path d="M113.9 72.4237C113.703 73.0016 113.847 73.3785 114.51 73.4558L114.591 73.5794L114.528 73.4462C114.792 72.8345 114.595 72.4907 113.925 72.4211C113.891 72.3875 113.857 72.3539 113.823 72.3203C113.848 72.3514 113.876 72.3882 113.896 72.4224L113.9 72.4237Z" fill="white"/>
<path d="M60.5254 98.5371C65.8936 104.564 71.2281 110.625 80.1776 113.373C76.9329 107.822 70.0675 102.687 60.5254 98.5371Z" fill="white"/>
<path d="M182.462 233.879C177.021 232.186 171.548 230.57 165.626 232.247C171.148 235.326 176.806 234.463 182.462 233.879Z" fill="white"/>
<path d="M133.177 49.3906C132.837 54.2399 133.408 58.9096 135.897 63.738C136.677 58.2502 135.38 53.73 133.177 49.3906Z" fill="white"/>
<path d="M202.599 149.735C203.868 150.027 204.65 149.36 205.04 148.117C205.092 146.912 204.556 146.006 203.275 145.898C202.059 145.794 201.148 146.439 200.998 147.703C200.867 148.813 201.599 149.501 202.596 149.73L202.599 149.735Z" fill="white"/>
<path d="M37.5674 224.821C37.2826 225.844 37.853 226.625 38.895 226.882C39.9192 227.133 40.6883 226.717 41.1416 225.745C41.3498 224.719 41.0259 223.869 40.0249 223.519C38.8255 223.103 37.8892 223.649 37.5674 224.821Z" fill="white"/>
</g>
<defs>
<clipPath id="clip0_2677_13026">
<rect width="189.56" height="287.1" fill="white" transform="translate(78.1543) rotate(15.7964)"/>
</clipPath>
</defs>
</svg>
